<svg width="20" height="20" viewBox="0 0 20 20" fill="none" xmlns="http://www.w3.org/2000/svg">
<path fill-rule="evenodd" clip-rule="evenodd" d="M10 -0.000244141C4.48 -0.000244141 0 4.47976 0 9.99976C0 15.5198 4.48 19.9998 10 19.9998C15.52 19.9998 20 15.5198 20 9.99976C20 4.47976 15.52 -0.000244141 10 -0.000244141ZM9 14C9 14.5522 9.44772 15 10 15C10.5523 15 11 14.5522 11 14V11H14C14.5523 11 15 10.5522 15 9.99996C15 9.44767 14.5523 8.99996 14 8.99996H11V5.99996C11 5.44767 10.5523 4.99996 10 4.99996C9.44772 4.99996 9 5.44767 9 5.99996V8.99996H6C5.44772 8.99996 5 9.44767 5 9.99996C5 10.5522 5.44772 11 6 11H9V14Z" fill="white"/>
</svg>
