<?xml version="1.0" encoding="UTF-8"?>
<svg width="53px" height="53px" viewBox="0 0 53 53" version="1.1" xmlns="http://www.w3.org/2000/svg" xmlns:xlink="http://www.w3.org/1999/xlink">
    <!-- Generator: Sketch 55.1 (78136) - https://sketchapp.com -->
    <title>ArmedRed02</title>
    <desc>Created with Sketch.</desc>
    <g id="ArmedRed02" stroke="none" stroke-width="1" fill="none" fill-rule="evenodd">
        <rect id="Rectangle" fill="#FF4949" transform="translate(26.870058, 26.870058) rotate(-45.000000) translate(-26.870058, -26.870058) " x="9.37005769" y="9.37005769" width="35" height="35"></rect>
        <path d="M7.87005769,7.87005769 L45.8700577,7.87005769 L45.8700577,45.8700577 L7.87005769,45.8700577 L7.87005769,7.87005769 Z M10.8700577,10.8700577 L10.8700577,42.8700577 L42.8700577,42.8700577 L42.8700577,10.8700577 L10.8700577,10.8700577 Z" id="Rectangle" fill="#420112" fill-rule="nonzero" transform="translate(26.870058, 26.870058) rotate(-45.000000) translate(-26.870058, -26.870058) "></path>
        <g id="set_2_icon" transform="translate(16.000000, 15.000000)" fill="#420112" fill-rule="nonzero">
            <path d="M7.85,9.05 L8.05,10.24 L8.76,10.76 L9.48,10.36 L7.85,9.05 Z M17,6.72 L16.9,7.52 L15.72,8.32 L15.62,8.4 L15.32,8.48 L14.9,8.6 L14.8,8.6 L12,10.56 C11.7169524,10.7026286 11.3830476,10.7026286 11.1,10.56 C7.34,8.46 8.18,8.92 7.54,8.56 C7.54,8.72 7.78,10.45 7.78,10.45 L8.71,11.17 L9.71,10.61 C10.29,11.19 10.56,11.48 10.71,11.61 L10.71,12.23 L13.31,11.99 C13.681382,11.9462105 14.0517472,12.0795419 14.31,12.35 C14.5700509,12.6132193 14.6889272,12.9847077 14.63,13.35 L13.73,19.01 L15.17,20.19 L15.17,20.63 L13.17,20.63 L12.55,20.35 L11.55,19.89 L11.39,18.89 L12,14.44 L8.7,14.78 L9.7,19.06 C9.77413847,19.4094615 9.69395769,19.7739196 9.48,20.06 C9.24867077,20.3404244 8.90352045,20.5019841 8.54,20.5 L0.68,20.5 L0.36,20.2 L1.6,18.9 L3.3,18.26 L3.94,18.68 L7.16,18.68 L7,18.14 C6.56,16.3 6.18,14.98 6,14.34 C5.90478725,14.0427105 5.85752871,13.7321544 5.86,13.42 C5.86,12.42 5.86,10.2 5.86,7.42 C5.85856424,6.97489707 6.03921233,6.54856758 6.36,6.24 C6.67118588,5.92303745 7.09582406,5.74310601 7.54,5.74 C7.67871326,6.11452283 7.93935028,6.43151381 8.28,6.64 C8.66,6.84 11.28,8.3 11.62,8.5 L14.38,7.6 L14.5,7.6 L14.64,7.6 L15.26,6.94 L15.7,7.14 L15.44,7.64 L15.44,7.64 L15.7,7.56 L16.22,7.4 L16.54,6.74 L17,6.72 Z M8.73,5.91 L9.09,5.17 L8.85,5.05 C8.56151384,4.90271521 8.44200591,4.55304387 8.58,4.26 L8.9,3.63 C8.74812619,3.46418144 8.71248504,3.22261362 8.81,3.02 L8.81,2.93 C8.91170907,2.74489225 9.10891439,2.63275589 9.32,2.64 L9.62,1.84 C9.68285261,1.58604485 9.77690111,1.34084699 9.9,1.11 C10.2653225,0.925613376 10.6868911,0.88631461 11.08,1 C11.3,1.1 13.08,2.22 13.08,2.52 C13.08,2.82 12.71,3.46 12.71,3.46 L11.49,5.7 C11.3427152,5.98848616 10.9930439,6.10799409 10.7,5.97 L10.46,5.85 L10.1,6.58 L8.73,5.91 Z M10.05,7.33 L13.92,7.42 L11.62,8.14 L10.05,7.33 Z M10.77,7.33 L13.41,5.54 L24.3,5.54 L24.3,6.54 L14.55,6.54 L13.81,7.29 L11.64,8.14 L10.77,7.33 Z" id="Shape"></path>
        </g>
    </g>
</svg>