<svg width="22" height="22" viewBox="0 0 22 22" fill="none" xmlns="http://www.w3.org/2000/svg">
<path fill-rule="evenodd" clip-rule="evenodd" d="M2.87596 8.5C2.95431 8.2454 3.04472 7.99417 3.14702 7.74719C3.20508 7.60705 3.2668 7.46864 3.33211 7.33211L1.88388 5.88388C1.39573 5.39573 1.39573 4.60427 1.88388 4.11612L4.11612 1.88388C4.60427 1.39573 5.39573 1.39573 5.88388 1.88388L7.33211 3.33211C7.46864 3.2668 7.60705 3.20507 7.74719 3.14702C7.99417 3.04472 8.2454 2.95431 8.5 2.87596V1C8.5 0.447716 8.94771 0 9.5 0H11H12.5C13.0523 0 13.5 0.447716 13.5 1V2.87596C13.7546 2.95431 14.0058 3.04472 14.2528 3.14702C14.393 3.20507 14.5314 3.2668 14.6679 3.33211L16.1161 1.88388C16.6043 1.39573 17.3957 1.39573 17.8839 1.88388L20.1161 4.11612C20.6043 4.60427 20.6043 5.39573 20.1161 5.88388L18.6679 7.33211C18.7332 7.46864 18.7949 7.60705 18.853 7.74719C18.9553 7.99417 19.0457 8.2454 19.124 8.5H21C21.5523 8.5 22 8.94772 22 9.5L22 11L22 12.5C22 13.0523 21.5523 13.5 21 13.5H19.124C19.0457 13.7546 18.9553 14.0058 18.853 14.2528C18.7949 14.393 18.7332 14.5314 18.6679 14.6679L20.1161 16.1161C20.6043 16.6043 20.6043 17.3957 20.1161 17.8839L17.8839 20.1161C17.3957 20.6043 16.6043 20.6043 16.1161 20.1161L14.6679 18.6679C14.5314 18.7332 14.393 18.7949 14.2528 18.853C14.0058 18.9553 13.7546 19.0457 13.5 19.124V21C13.5 21.5523 13.0523 22 12.5 22H11H9.5C8.94771 22 8.5 21.5523 8.5 21V19.124C8.2454 19.0457 7.99417 18.9553 7.74719 18.853C7.60705 18.7949 7.46864 18.7332 7.33211 18.6679L5.88388 20.1161C5.39573 20.6043 4.60427 20.6043 4.11612 20.1161L1.88388 17.8839C1.39573 17.3957 1.39573 16.6043 1.88388 16.1161L3.33211 14.6679C3.2668 14.5314 3.20508 14.393 3.14702 14.2528C3.04472 14.0058 2.95431 13.7546 2.87596 13.5H1C0.447715 13.5 0 13.0523 0 12.5V11V9.5C0 8.94772 0.447715 8.5 1 8.5H2.87596ZM11 8C12.6569 8 14 9.34315 14 11C14 12.6569 12.6569 14 11 14C9.34315 14 8 12.6569 8 11C8 9.34315 9.34315 8 11 8Z" fill="white"/>
</svg>
