<svg viewBox="0 0 24 24" fill="none" xmlns="http://www.w3.org/2000/svg">
<path fill-rule="evenodd" clip-rule="evenodd" d="M13.4999 3C14.2612 3 15.0138 4.00012 14.9998 5H19C19.5523 5 20 5.44772 20 6C20 6.55195 19.5528 6.99946 19.001 7H5.001V7H5C4.44772 7 4 6.55228 4 6C4 5.44772 4.44772 5 5 5H9C9 4.00012 9.75173 3.00024 10.4955 3.00024L13.4999 3ZM11 5H13V4H11V5ZM5.001 7V18.2744C5.001 19.785 6.62005 21 8.0009 21H16.0009C17.3918 21 19.001 19.7104 19.001 18.1999V7L19 7H17V17.0769C17 18.3219 15.9935 19 15 19H9C8.01368 19 7 18.3219 7 17.0769V7H5.001ZM9.01 9.48939C9.01 9.21973 9.47 9 10.01 9C10.55 9 10.99 9.21973 10.99 9.48939V16.5106C10.99 16.7803 10.55 17 10.01 17C9.47 17 9.01 16.7803 9.01 16.5106V9.48939ZM14.99 16.5107V9.48951C14.99 9.21985 14.55 9.00012 14.01 9.00012C13.47 9.00012 13.01 9.21985 13.01 9.48951V16.5107C13.01 16.7804 13.47 17.0001 14.01 17.0001C14.55 17.0001 14.99 16.7804 14.99 16.5107Z" fill="#4E6474"/>
</svg>
