<svg viewBox="0 0 16 18" fill="none" xmlns="http://www.w3.org/2000/svg">
<path fill-rule="evenodd" clip-rule="evenodd" d="M9.49985 0C10.2612 0 11.0138 1.00012 10.9998 2H15C15.5523 2 16 2.44772 16 3C16 3.55195 15.5528 3.99946 15.001 4H1.001V4H1C0.447715 4 0 3.55228 0 3C0 2.44772 0.447715 2 1 2H5C5 1.00012 5.75173 0.000244111 6.49547 0.000244111L9.49985 0ZM7 2H9V1H7V2ZM1.001 4V15.2744C1.001 16.785 2.62005 18 4.0009 18H12.0009C13.3918 18 15.001 16.7104 15.001 15.1999V4L15 4H13V14.0769C13 15.3219 11.9935 16 11 16H5C4.01368 16 3 15.3219 3 14.0769V4H1.001ZM5.01 6.48939C5.01 6.21973 5.47 6 6.01 6C6.55 6 6.99 6.21973 6.99 6.48939V13.5106C6.99 13.7803 6.55 14 6.01 14C5.47 14 5.01 13.7803 5.01 13.5106V6.48939ZM10.99 13.5107V6.48951C10.99 6.21985 10.55 6.00012 10.01 6.00012C9.47 6.00012 9.01 6.21985 9.01 6.48951V13.5107C9.01 13.7804 9.47 14.0001 10.01 14.0001C10.55 14.0001 10.99 13.7804 10.99 13.5107Z" fill="#EAEEF8"/>
</svg>
