<svg viewBox="0 0 24 24" fill="none" xmlns="http://www.w3.org/2000/svg">
    <path fill-rule="evenodd" clip-rule="evenodd" d="M13.7308 2C13.9032 2 14.0685 2.06848 14.1904 2.19038L19.8096 7.80962C19.9315 7.93152 20 8.09685 20 8.26924V20C20 21.1 19.099 22 18 22H5.99C4.89 22 4 21.1 4 20L4.01 4C4.01 2.9 4.9 2 6 2H13.7308ZM7 4C6.44772 4 6 4.44772 6 5V19C6 19.5523 6.44772 20 7 20H17C17.5523 20 18 19.5523 18 19V9H13.5C13.2239 9 13 8.77614 13 8.5L13 4H7ZM13 10C13 9.44772 12.5523 9 12 9C11.4477 9 11 9.44772 11 10V14H8.62419C8.37263 14 8.23278 14.291 8.38993 14.4874L11.6096 18.512C11.8097 18.7622 12.1903 18.7622 12.3904 18.512L15.6101 14.4874C15.7672 14.291 15.6274 14 15.3758 14H13V10Z" fill="#4E6474"/>
</svg>
