<svg viewBox="0 0 20 20" fill="none" xmlns="http://www.w3.org/2000/svg">
<path fill-rule="evenodd" clip-rule="evenodd" d="M4.98555 19C4.01575 19.9726 0 20 0 20C0 20 0.0340279 15.9659 0.99711 15L12.9624 3L16.9509 7L4.98555 19ZM4.04624 17C3.07644 17.9726 2.05202 18 2.05202 18C2.05202 18 2.08605 16.9659 3.04913 16L12.9624 6L14.0173 7L4.04624 17ZM20 3.49835C20 3.17954 19.872 2.87408 19.6448 2.65049L17.3038 0.347283C17.0776 0.124728 16.773 0 16.4557 0C16.1344 0 15.8262 0.12789 15.5994 0.355438L13.9595 2L17.948 6L19.6408 4.35014C19.8705 4.12626 20 3.8191 20 3.49835Z" fill="#EAEEF8"/>
</svg>
