<svg width="49" height="49" viewBox="0 0 49 49" fill="none" xmlns="http://www.w3.org/2000/svg">
<path d="M42.875 48.8852L28.6541 40.0039H3.0625C1.37125 40.0039 0 38.6327 0 36.9414V3.25391C0 1.56265 1.37125 0.191406 3.0625 0.191406H45.9375C47.6288 0.191406 49 1.56265 49 3.25391V36.9414C49 38.6327 47.6288 40.0039 45.9375 40.0039H42.875V48.8852Z" fill="#FF2846"/>
<path d="M15.7058 10.5914L15.7124 10.5852L15.7187 10.5789C16.1572 10.1404 16.8708 10.1404 17.3093 10.5789L17.3094 10.579L23.4731 16.7378L23.8266 17.0911L24.18 16.7377L30.3388 10.5789C30.7772 10.1404 31.5007 10.1404 31.9392 10.5789L32.0689 10.7087L32.0691 10.709C32.5076 11.1475 32.5076 11.8708 32.0691 12.3093L25.9104 18.4681L25.5569 18.8216L25.9104 19.1752L32.0691 25.334L32.4227 24.9804L32.0691 25.334C32.5076 25.7725 32.5076 26.4958 32.0691 26.9343L32.0689 26.9345L31.9392 27.0644C31.5007 27.5029 30.7772 27.5029 30.3388 27.0644L24.18 20.9056L23.8266 20.5522L23.4731 20.9054L17.3094 27.0642L17.3093 27.0644C16.8708 27.5029 16.1572 27.5029 15.7187 27.0644L15.7124 27.058L15.7058 27.0519L15.5731 26.9285C15.1404 26.4894 15.1423 25.7706 15.5789 25.334L21.7424 19.1753L22.0964 18.8216L21.7424 18.4679L15.5789 12.3093C15.5788 12.3092 15.5788 12.3092 15.5787 12.3091C15.1423 11.8725 15.1404 11.1538 15.5731 10.7148L15.7058 10.5914Z" fill="#404040" stroke="#404040"/>
</svg>
