<svg width="18" height="18" viewBox="0 0 18 18" fill="none" xmlns="http://www.w3.org/2000/svg">
<path fill-rule="evenodd" clip-rule="evenodd" d="M1 0C0.861929 0 0.730393 0.0279822 0.610755 0.078585C0.439094 0.151192 0.291926 0.270368 0.18509 0.420277C0.0685493 0.583802 0 0.783896 0 1V17C0 17.5178 0.3935 17.9436 0.897756 17.9948C0.931373 17.9983 0.965483 18 1 18H17C17.5523 18 18 17.5523 18 17V10C18 9.44771 17.5523 9 17 9C16.4477 9 16 9.44771 16 10V16H2L2 2H8C8.55229 2 9 1.55228 9 1C9 0.447715 8.55229 0 8 0H1ZM12 0C11.4477 0 11 0.447715 11 1C11 1.55228 11.4477 2 12 2H14.5L8.20708 8.29289C7.81655 8.68342 7.81655 9.31658 8.20708 9.70711L8.29286 9.79289C8.68339 10.1834 9.31655 10.1834 9.70708 9.79289L16 3.5V6C16 6.55228 16.4477 7 17 7C17.5523 7 18 6.55228 18 6V1.0014V1C18 0.447715 17.5523 0 17 0H12Z" fill="white"/>
</svg>
