<svg viewBox="0 0 16 13" fill="none" xmlns="http://www.w3.org/2000/svg">
<path d="M14.8745 6.66189C14.7329 6.58626 14.5712 6.54834 14.3893 6.54834H7.47176C7.11889 6.54834 6.73522 6.65154 6.32092 6.85775C5.90657 7.06429 5.58444 7.31509 5.3546 7.61161L2.65984 11.0618C2.49402 11.2651 2.41113 11.4568 2.41113 11.637C2.41113 11.8112 2.48202 11.9361 2.62368 12.0115C2.76533 12.0871 2.92706 12.1249 3.10886 12.1249H10.0267C10.3795 12.1249 10.7629 12.0217 11.1773 11.8156C11.5917 11.6094 11.9137 11.3582 12.1437 11.0618L14.8384 7.61161C15.0041 7.40821 15.0869 7.21674 15.0869 7.03639C15.0871 6.86221 15.0163 6.73739 14.8745 6.66189Z" fill="#EAEEF8"/>
<path fill-rule="evenodd" clip-rule="evenodd" d="M6.02786 1.30969H10.8501C11.5192 1.30969 12.0557 1.8925 12.0557 2.61937V5.23874H6.86898C6.51611 5.23874 6.13244 5.34194 5.71815 5.54815C5.30379 5.75469 4.98166 6.0055 4.75182 6.30201L2.05707 9.75218C1.89124 9.95551 1.80836 10.1472 1.80836 10.3274C1.80836 10.3823 1.81541 10.4324 1.82952 10.4775H1.20557C0.536479 10.4775 0 9.89467 0 9.1678L0.006028 1.30969C0.006028 0.58281 0.536479 0 1.20557 0H4.82229L6.02786 1.30969Z" fill="#EAEEF8"/>
</svg>
