<svg width="24" height="24" viewBox="0 0 24 24" fill="none" xmlns="http://www.w3.org/2000/svg">
    <path fill-rule="evenodd" clip-rule="evenodd" d="M19 4C19.5523 4 20 4.44772 20 5V6V9C20 9.55228 19.5523 10 19 10C18.4477 10 18 9.55228 18 9V6H15C14.4477 6 14 5.55228 14 5C14 4.44772 14.4477 4 15 4H18H19ZM4 19C4 19.5523 4.44772 20 5 20H6H9C9.55228 20 10 19.5523 10 19C10 18.4477 9.55228 18 9 18H6V15C6 14.4477 5.55228 14 5 14C4.44772 14 4 14.4477 4 15V18V19ZM20 19C20 19.5523 19.5523 20 19 20H18H15C14.4477 20 14 19.5523 14 19C14 18.4477 14.4477 18 15 18H18V15C18 14.4477 18.4477 14 19 14C19.5523 14 20 14.4477 20 15V18V19ZM4 5C4 4.44772 4.44772 4 5 4H6H9C9.55228 4 10 4.44772 10 5C10 5.55228 9.55228 6 9 6H6V9C6 9.55228 5.55228 10 5 10C4.44772 10 4 9.55228 4 9V6V5Z" fill="#ffffff"/>
</svg>
