<svg width="24" height="24" viewBox="0 0 24 24" fill="none" xmlns="http://www.w3.org/2000/svg">
    <path fill-rule="evenodd" clip-rule="evenodd" d="M3.53952 9.76021C3.19072 9.91523 2.90666 10.1867 2.73596 10.5281C2.3295 11.341 2.659 12.3295 3.47192 12.736L3.61803 12.809C3.86923 12.9346 4.14621 13 4.42705 13H10.5C10.7761 13 11 13.2239 11 13.5V19.5729C11 19.8538 11.0654 20.1308 11.191 20.382L11.264 20.5281C11.6705 21.341 12.659 21.6705 13.4719 21.264C13.8133 21.0933 14.0848 20.8093 14.2398 20.4605L21.9569 3.09696C21.9853 3.03303 22 2.96385 22 2.89389V2.5C22 2.22386 21.7761 2 21.5 2H21.1061C21.0361 2 20.967 2.01468 20.903 2.04309L3.53952 9.76021ZM19 5L5 11H12C12.5523 11 13 11.4477 13 12V19L19 5Z" fill="#ffffff"/>
</svg>
