<svg width="20" height="14" viewBox="0 0 20 14" fill="none" xmlns="http://www.w3.org/2000/svg">
    <path fill-rule="evenodd" clip-rule="evenodd" d="M0 6.99998C0 4.59834 0.719898 2.38566 2.00859 0.619681C2.27489 0.254755 2.78236 0.188221 3.15824 0.438811C3.60547 0.736961 3.6882 1.35984 3.40455 1.81641C2.50086 3.271 2 5.20823 2 6.99998C2 8.79174 2.50086 10.729 3.40455 12.1836C3.6882 12.6401 3.60547 13.263 3.15824 13.5612C2.78236 13.8117 2.27489 13.7452 2.00859 13.3803C0.719898 11.6143 0 9.40163 0 6.99998ZM17.9914 0.619681C17.7251 0.254755 17.2176 0.188221 16.8418 0.438811C16.3945 0.736961 16.3118 1.35984 16.5954 1.81641C17.4991 3.271 18 5.20823 18 6.99998C18 8.79174 17.4991 10.729 16.5954 12.1836C16.3118 12.6401 16.3945 13.263 16.8418 13.5612C17.2176 13.8117 17.7251 13.7452 17.9914 13.3803C19.2801 11.6143 20 9.40163 20 6.99998C20 4.59834 19.2801 2.38566 17.9914 0.619681ZM6.15824 3.43881C5.78236 3.18822 5.27202 3.25323 5.01772 3.62662C4.36247 4.58868 4 5.67995 4 6.99998C4 8.32002 4.36247 9.41128 5.01772 10.3733C5.27202 10.7467 5.78236 10.8117 6.15824 10.5612C6.60547 10.263 6.68836 9.63437 6.4636 9.14613C6.16312 8.49343 6 7.72302 6 6.99998C6 6.27695 6.16312 5.50653 6.4636 4.85384C6.68836 4.36559 6.60547 3.73696 6.15824 3.43881ZM14.9437 3.62389C14.6873 3.25336 14.1783 3.18937 13.8044 3.44087C13.3622 3.73834 13.2816 4.36058 13.5107 4.84179C13.8226 5.49704 14 6.27249 14 6.99998C14 7.7175 13.8275 8.48168 13.5234 9.13117C13.2917 9.62617 13.3789 10.2657 13.8362 10.5652C14.216 10.814 14.7282 10.7467 14.9837 10.3713C15.638 9.40976 16 8.3191 16 6.99998C16 5.6787 15.6099 4.58662 14.9437 3.62389ZM10 9C11.1046 9 12 8.10457 12 7C12 5.89543 11.1046 5 10 5C8.89543 5 8 5.89543 8 7C8 8.10457 8.89543 9 10 9Z" fill="#ffffff"/>
</svg>
