<svg width="29" height="27" viewBox="0 0 29 27" fill="none" xmlns="http://www.w3.org/2000/svg">
<path fill-rule="evenodd" clip-rule="evenodd" d="M13.2583 4.09097C13.4274 3.96814 13.6592 3.96815 13.8283 4.10042L17.0585 6.50972C17.2276 6.63254 17.4594 6.63254 17.6285 6.50972L20.8587 4.10042C21.0278 3.96815 21.2596 3.96814 21.4287 4.09097L24.789 6.60418C24.8879 6.67976 24.9544 6.78364 24.9734 6.90646L26.6758 17.9135C26.7642 18.4803 26.3186 19 25.7362 19H25.5947C25.4816 19 25.3714 18.9622 25.2859 18.8866L22.3541 16.3829C22.1983 16.2506 21.9759 16.2317 21.8002 16.345L17.5877 18.8583C17.4376 18.9433 17.2495 18.9433 17.0994 18.8583L12.8869 16.345C12.7111 16.2317 12.4888 16.2506 12.333 16.3829L9.40112 18.8866C9.31561 18.9622 9.20541 19 9.09236 19H8.9508C8.36842 19 7.92285 18.4803 8.0112 17.9135L9.71368 6.90646C9.73268 6.78364 9.79918 6.67976 9.89799 6.60418L13.2583 4.09097ZM12.5933 14.276L13.5433 5.77274L11.1682 7.66235L9.74314 16.638L12.5933 14.276ZM14.9684 6.90646L16.3935 8.13475V16.638L14.0184 15.2208L14.9684 6.90646ZM22.0938 14.276L21.1437 5.77274L23.5188 7.66235L24.9439 16.638L22.0938 14.276ZM19.7186 6.90646L18.2936 8.13475V16.638L20.6687 15.2208L19.7186 6.90646Z" fill="#EAEEF8"/>
<path d="M0 18C0 16.3431 1.34315 15 3 15H17.2131C18.87 15 20.2131 16.3431 20.2131 18V23.288C20.2131 24.9448 18.87 26.288 17.2131 26.288H3C1.34314 26.288 0 24.9448 0 23.288V18Z" fill="#2979FF"/>
<path d="M3.57764 23V18.0234H4.98242C5.41536 18.0234 5.79818 18.1191 6.13086 18.3105C6.46354 18.502 6.71989 18.7743 6.8999 19.1274C7.08219 19.4806 7.17448 19.8862 7.17676 20.3442V20.6621C7.17676 21.1315 7.08561 21.5428 6.90332 21.896C6.72331 22.2492 6.46468 22.5203 6.12744 22.7095C5.79248 22.8986 5.40169 22.9954 4.95508 23H3.57764ZM4.23389 18.5635V22.4634H4.92432C5.43018 22.4634 5.82324 22.3062 6.10352 21.9917C6.38607 21.6772 6.52734 21.2295 6.52734 20.6484V20.3579C6.52734 19.7928 6.39404 19.3542 6.12744 19.042C5.86312 18.7275 5.48714 18.568 4.99951 18.5635H4.23389ZM11.5142 18.5635H9.91455V23H9.26172V18.5635H7.66553V18.0234H11.5142V18.5635ZM13.1001 18.0234L14.7271 22.084L16.354 18.0234H17.2051V23H16.5488V21.062L16.6104 18.9702L14.9766 23H14.4741L12.8438 18.9805L12.9087 21.062V23H12.2524V18.0234H13.1001Z" fill="white"/>
</svg>
