<?xml version="1.0" encoding="UTF-8" standalone="no"?>
<svg
   xmlns:dc="http://purl.org/dc/elements/1.1/"
   xmlns:cc="http://creativecommons.org/ns#"
   xmlns:rdf="http://www.w3.org/1999/02/22-rdf-syntax-ns#"
   xmlns:svg="http://www.w3.org/2000/svg"
   xmlns="http://www.w3.org/2000/svg"
   id="svg1426"
   version="1.1"
   fill="none"
   viewBox="0 0 29 27">
  <metadata
     id="metadata1432">
    <rdf:RDF>
      <cc:Work
         rdf:about="">
        <dc:format>image/svg+xml</dc:format>
        <dc:type
           rdf:resource="http://purl.org/dc/dcmitype/StillImage" />
        <dc:title></dc:title>
      </cc:Work>
    </rdf:RDF>
  </metadata>
  <defs
     id="defs1430" />
  <path
     id="path1420"
     fill="#EAEEF8"
     d="M13.2583 4.09097C13.4274 3.96814 13.6592 3.96815 13.8283 4.10042L17.0585 6.50972C17.2276 6.63254 17.4594 6.63254 17.6285 6.50972L20.8587 4.10042C21.0278 3.96815 21.2596 3.96814 21.4287 4.09097L24.789 6.60418C24.8879 6.67976 24.9544 6.78364 24.9734 6.90646L26.6758 17.9135C26.7642 18.4803 26.3186 19 25.7362 19H25.5947C25.4816 19 25.3714 18.9622 25.2859 18.8866L22.3541 16.3829C22.1983 16.2506 21.9759 16.2317 21.8002 16.345L17.5877 18.8583C17.4376 18.9433 17.2495 18.9433 17.0994 18.8583L12.8869 16.345C12.7111 16.2317 12.4888 16.2506 12.333 16.3829L9.40112 18.8866C9.31561 18.9622 9.20541 19 9.09236 19H8.9508C8.36842 19 7.92285 18.4803 8.0112 17.9135L9.71368 6.90646C9.73268 6.78364 9.79918 6.67976 9.89799 6.60418L13.2583 4.09097ZM12.5933 14.276L13.5433 5.77274L11.1682 7.66235L9.74314 16.638L12.5933 14.276ZM14.9684 6.90646L16.3935 8.13475V16.638L14.0184 15.2208L14.9684 6.90646ZM22.0938 14.276L21.1437 5.77274L23.5188 7.66235L24.9439 16.638L22.0938 14.276ZM19.7186 6.90646L18.2936 8.13475V16.638L20.6687 15.2208L19.7186 6.90646Z"
     clip-rule="evenodd"
     fill-rule="evenodd" />
  <path
     id="path1422"
     fill="#2979FF"
     d="M0 18C0 16.3431 1.34315 15 3 15H17.2131C18.87 15 20.2131 16.3431 20.2131 18V23.288C20.2131 24.9448 18.87 26.288 17.2131 26.288H3C1.34314 26.288 0 24.9448 0 23.288V18Z" />
  <text
     transform="scale(1.0552857,0.94761068)"
     id="text1979"
     y="24.629297"
     x="5.9094124"
     style="font-style:normal;font-weight:normal;font-size:31.62529755px;line-height:1.25;font-family:sans-serif;letter-spacing:0px;word-spacing:0px;fill:#ffffff;fill-opacity:0.94117647;stroke:none;stroke-width:0.79063243;"
     xml:space="preserve"><tspan
       style="font-style:normal;font-variant:normal;font-weight:normal;font-stretch:normal;font-size:8.43341351px;font-family:sans-serif;-inkscape-font-specification:'sans-serif, Normal';font-variant-ligatures:normal;font-variant-caps:normal;font-variant-numeric:normal;font-feature-settings:normal;text-align:start;writing-mode:lr-tb;text-anchor:start;stroke-width:0.79063243;fill:#ffffff;fill-opacity:0.94117647;"
       y="24.629297"
       x="5.9094124"
       id="tspan1977">M</tspan></text>
</svg>
