<svg viewBox="0 0 29 27" fill="none" xmlns="http://www.w3.org/2000/svg">
<path fill-rule="evenodd" clip-rule="evenodd" d="M13.2583 4.09097C13.4274 3.96814 13.6592 3.96815 13.8283 4.10042L17.0585 6.50972C17.2276 6.63254 17.4594 6.63254 17.6285 6.50972L20.8587 4.10042C21.0278 3.96815 21.2596 3.96814 21.4287 4.09097L24.789 6.60418C24.8879 6.67976 24.9544 6.78364 24.9734 6.90646L26.6758 17.9135C26.7642 18.4803 26.3186 19 25.7362 19H25.5947C25.4816 19 25.3714 18.9622 25.2859 18.8866L22.3541 16.3829C22.1983 16.2506 21.9759 16.2317 21.8002 16.345L17.5877 18.8583C17.4376 18.9433 17.2495 18.9433 17.0994 18.8583L12.8869 16.345C12.7111 16.2317 12.4888 16.2506 12.333 16.3829L9.40112 18.8866C9.31561 18.9622 9.20541 19 9.09236 19H8.9508C8.36842 19 7.92285 18.4803 8.0112 17.9135L9.71368 6.90646C9.73268 6.78364 9.79918 6.67976 9.89799 6.60418L13.2583 4.09097ZM12.5933 14.276L13.5433 5.77274L11.1682 7.66235L9.74314 16.638L12.5933 14.276ZM14.9684 6.90646L16.3935 8.13475V16.638L14.0184 15.2208L14.9684 6.90646ZM22.0938 14.276L21.1437 5.77274L23.5188 7.66235L24.9439 16.638L22.0938 14.276ZM19.7186 6.90646L18.2936 8.13475V16.638L20.6687 15.2208L19.7186 6.90646Z" fill="#EAEEF8"/>
<path d="M0 18C0 16.3431 1.34315 15 3 15H17.2131C18.87 15 20.2131 16.3431 20.2131 18V23.288C20.2131 24.9448 18.87 26.288 17.2131 26.288H3C1.34314 26.288 0 24.9448 0 23.288V18Z" fill="#2979FF"/>
<path d="M10.1405 21.2444H8.97156V23.2576H8.31189V18.281H9.95935C10.5199 18.281 10.9506 18.4086 11.2513 18.6638C11.5544 18.919 11.7059 19.2904 11.7059 19.7781C11.7059 20.088 11.6216 20.358 11.453 20.5881C11.2867 20.8183 11.0542 20.9903 10.7557 21.1042L11.9247 23.2166V23.2576H11.2206L10.1405 21.2444ZM8.97156 20.7078H9.97986C10.3057 20.7078 10.5643 20.6235 10.7557 20.4548C10.9494 20.2862 11.0463 20.0606 11.0463 19.7781C11.0463 19.4705 10.954 19.2346 10.7694 19.0706C10.5871 18.9065 10.3228 18.8233 9.97644 18.821H8.97156V20.7078Z" fill="white"/>
</svg>
