<svg width="20" height="16" viewBox="0 0 20 16" fill="none" xmlns="http://www.w3.org/2000/svg">
<path fill-rule="evenodd" clip-rule="evenodd" d="M5.70001 0.225C5.87779 0.0916666 6.12223 0.0916667 6.30001 0.225L9.70001 2.775C9.87779 2.90833 10.1222 2.90833 10.3 2.775L13.7 0.225C13.8778 0.0916667 14.1222 0.0916666 14.3 0.225L17.8368 2.87762C17.9414 2.95607 18.0111 3.07237 18.031 3.20159L19.8228 14.8479C19.916 15.4537 19.4473 16 18.8344 16H18.685C18.5656 16 18.4502 15.9573 18.3596 15.8796L15.2736 13.2345C15.1102 13.0945 14.8755 13.0747 14.691 13.1854L10.2573 15.8457C10.0989 15.9407 9.9011 15.9407 9.74276 15.8457L5.30903 13.1854C5.12449 13.0747 4.88979 13.0945 4.72639 13.2345L1.64044 15.8796C1.54982 15.9573 1.4344 16 1.31505 16H1.16562C0.552735 16 0.0840546 15.4537 0.177248 14.8479L1.96899 3.20159C1.98888 3.07237 2.05858 2.95607 2.16318 2.87762L5.70001 0.225ZM5 11L6 2L3.5 4L2 13.5L5 11ZM7.5 3.2L9 4.5V13.5L6.5 12L7.5 3.2ZM15 11L14 2L16.5 4L18 13.5L15 11ZM12.5 3.2L11 4.5V13.5L13.5 12L12.5 3.2Z" fill="#ffffff"/>
</svg>
