<?xml version="1.0" encoding="UTF-8" standalone="no"?>
<svg
   xmlns:dc="http://purl.org/dc/elements/1.1/"
   xmlns:cc="http://creativecommons.org/ns#"
   xmlns:rdf="http://www.w3.org/1999/02/22-rdf-syntax-ns#"
   xmlns:svg="http://www.w3.org/2000/svg"
   xmlns="http://www.w3.org/2000/svg"
   style="fill:none"
   version="1.1"
   viewBox="0 0 20 16">
  <metadata
     id="metadata833">
    <rdf:RDF>
      <cc:Work
         rdf:about="">
        <dc:format>image/svg+xml</dc:format>
        <dc:type
           rdf:resource="http://purl.org/dc/dcmitype/StillImage" />
        <dc:title></dc:title>
      </cc:Work>
    </rdf:RDF>
  </metadata>
  <defs
     id="defs831" />
  <path
     style="clip-rule:evenodd;fill:#ffffff;fill-rule:evenodd"
     id="path825"
     d="M 18,2 H 10 L 8,0 H 2 C 0.89,0 0.01,0.89 0.01,2 L 0,14 c 0,1.11 0.89,2 2,2 h 16 c 1.11,0 2,-0.89 2,-2 V 4 C 20,2.89 19.11,2 18,2 Z M 2,14 V 2 h 5.17 l 2,2 H 18 V 14 Z M 12.8123,5.64988 C 12.485,5.38797 12,5.62106 12,6.04031 V 7.5 C 12,7.77614 11.7761,8 11.5,8 h -4 C 7.22386,8 7,8.22386 7,8.5 v 1 C 7,9.77614 7.22386,10 7.5,10 h 4 c 0.2761,0 0.5,0.2239 0.5,0.5 v 1.4597 c 0,0.4192 0.485,0.6523 0.8123,0.3904 L 16.512,9.39043 c 0.2502,-0.20016 0.2502,-0.5807 0,-0.78086 z" />
</svg>
