<svg viewBox="0 0 24 24" fill="#ffffff" xmlns="http://www.w3.org/2000/svg">
    <path fill-rule="evenodd" clip-rule="evenodd" d="M13.7308 2C13.9032 2 14.0685 2.06848 14.1904 2.19038L19.8096 7.80962C19.9315 7.93152 20 8.09685 20 8.26924V20C20 21.1 19.099 22 18 22H5.99C4.89 22 4 21.1 4 20L4.01 4C4.01 2.9 4.9 2 6 2H13.7308ZM7 4C6.44772 4 6 4.44772 6 5V19C6 19.5523 6.44772 20 7 20H17C17.5523 20 18 19.5523 18 19V9H13.5C13.2239 9 13 8.77614 13 8.5L13 4H7ZM11 11C11 10.4477 11.4477 10 12 10C12.5523 10 13 10.4477 13 11V13H15C15.5523 13 16 13.4477 16 14C16 14.5523 15.5523 15 15 15H13V17C13 17.5523 12.5523 18 12 18C11.4477 18 11 17.5523 11 17V15H9C8.44772 15 8 14.5523 8 14C8 13.4477 8.44772 13 9 13H11V11Z" fill="#4E6474"/>
</svg>
