<svg viewBox="0 0 16 20" fill="none" xmlns="http://www.w3.org/2000/svg">
<path fill-rule="evenodd" clip-rule="evenodd" d="M7.52 5.64001C7.71777 5.78834 8 5.64723 8 5.40001V4.00001C11.3137 4.00001 14 6.68631 14 10C14 10.6374 13.9165 11.2674 13.7411 11.8524C13.6217 12.251 13.6948 12.6948 13.989 12.989L14.0731 13.0731C14.5397 13.5397 15.3223 13.4305 15.5398 12.8075C15.846 11.9301 16 10.9752 16 10C16 5.58174 12.4183 2.00001 8 2.00001V0.600014C8 0.3528 7.71777 0.211686 7.52 0.360014L4.32 2.76001C4.16 2.88001 4.16 3.12001 4.32 3.24001L7.52 5.64001ZM8.48 14.36C8.28223 14.2117 8 14.3528 8 14.6V16C4.68629 16 2 13.3137 2 10C2 9.36267 2.08352 8.73267 2.25886 8.14764C2.37834 7.74902 2.30523 7.30525 2.01098 7.01099L1.92688 6.9269C1.4603 6.46031 0.677671 6.56953 0.460221 7.19252C0.153981 8.0699 0 9.02483 0 10C0 14.4183 3.58172 18 8 18V19.4C8 19.6472 8.28223 19.7883 8.48 19.64L11.68 17.24C11.84 17.12 11.84 16.88 11.68 16.76L8.48 14.36Z" fill="#EAEEF8"/>
</svg>
