<svg width="18" height="17" viewBox="0 0 18 17" fill="none" xmlns="http://www.w3.org/2000/svg">
<path fill-rule="evenodd" clip-rule="evenodd" d="M6.50037 12.2776C7.79487 12.2776 9.00116 11.9179 10.0152 11.304L15.6399 16.6185C16.1794 17.1272 17.0551 17.1272 17.5947 16.6185C18.1351 16.1099 18.1351 15.2769 17.5947 14.7682L11.97 9.45375C12.6219 8.49786 13.0007 7.35777 13.0007 6.13878C13.0007 2.74491 10.0904 0 6.50037 0C2.91031 0 0 2.74491 0 6.13878C0 9.53265 2.91031 12.2776 6.50037 12.2776ZM6.50037 10.5236C9.0643 10.5236 11.1435 8.55922 11.1435 6.13878C11.1435 3.71835 9.0643 1.75394 6.50037 1.75394C3.93644 1.75394 1.85725 3.71835 1.85725 6.13878C1.85725 8.55922 3.93644 10.5236 6.50037 10.5236Z" fill="#EAEEF8"/>
</svg>
