<svg viewBox="0 0 24 24" fill="#ffffff" xmlns="http://www.w3.org/2000/svg">
    <path fill-rule="evenodd" clip-rule="evenodd" d="M2 5C2 4.44772 2.44772 4 3 4H19C19.5523 4 20 4.44772 20 5C20 5.55228 19.5523 6 19 6H3C2.44772 6 2 5.55228 2 5ZM2 10C2 9.44772 2.44772 9 3 9H19C19.5523 9 20 9.44772 20 10C20 10.5523 19.5523 11 19 11H3C2.44772 11 2 10.5523 2 10ZM3 14C2.44772 14 2 14.4477 2 15C2 15.5523 2.44772 16 3 16H11C11.5523 16 12 15.5523 12 15C12 14.4477 11.5523 14 11 14H3ZM2 20C2 19.4477 2.44772 19 3 19H11C11.5523 19 12 19.4477 12 20C12 20.5523 11.5523 21 11 21H3C2.44772 21 2 20.5523 2 20ZM18 16L15 13L14 14L17 17L14 20L15 21L18 18L21 21L22 20L19 17L22 14L21 13L18 16Z" fill="#4E6474"/>
</svg>
