<svg width="12" height="12" viewBox="0 0 12 12" fill="none" xmlns="http://www.w3.org/2000/svg">
<path d="M0.321433 1.92857C-0.107144 1.5 -0.107144 0.857149 0.321433 0.428578L0.42842 0.321428C0.856997 -0.107143 1.50002 -0.107143 1.9286 0.321428L5.99987 4.39287L10.0714 0.321428C10.5 -0.107143 11.143 -0.107143 11.5716 0.321428L11.6786 0.428578C12.1071 0.857149 12.1071 1.5 11.6786 1.92857L7.60703 6.00002L11.6786 10.0714C12.1071 10.5 12.1071 11.1429 11.6786 11.5714L11.5716 11.6786C11.143 12.1071 10.5 12.1071 10.0714 11.6786L5.99987 7.60716L1.9286 11.6786C1.50002 12.1071 0.856997 12.1071 0.42842 11.6786L0.321433 11.5714C-0.107144 11.1429 -0.107144 10.5 0.321433 10.0714L4.39271 6.00002L0.321433 1.92857Z" fill="#FFFFFF"/>
</svg>
