<svg viewBox="0 0 24 24" fill="none" xmlns="http://www.w3.org/2000/svg">
    <path fill-rule="evenodd" clip-rule="evenodd" d="M13.7308 2C13.9032 2 14.0685 2.06848 14.1904 2.19038L19.8096 7.80962C19.9315 7.93152 20 8.09685 20 8.26924V20C20 21.1 19.099 22 18 22H5.99C4.89 22 4 21.1 4 20L4.01 4C4.01 2.9 4.9 2 6 2H13.7308ZM7 4C6.44772 4 6 4.44772 6 5V19C6 19.5523 6.44772 20 7 20H17C17.5523 20 18 19.5523 18 19V9H13.5C13.2239 9 13 8.77614 13 8.5L13 4H7ZM16.2071 12.2071C15.8166 11.8166 15.1834 11.8166 14.7929 12.2071L11.1414 15.8586C11.0633 15.9367 10.9367 15.9367 10.8586 15.8586L9.19007 14.1901C8.80626 13.8063 8.18636 13.7987 7.79331 14.173L7.73548 14.2281C7.33115 14.6132 7.32048 15.2548 7.7118 15.6531L10.2929 18.2803C10.6824 18.6768 11.3204 18.6796 11.7134 18.2866L16.2929 13.7071C16.6834 13.3166 16.6834 12.6834 16.2929 12.2929L16.2071 12.2071Z" fill="#4E6474"/>
</svg>
