<svg viewBox="0 0 24 24" fill="none" xmlns="http://www.w3.org/2000/svg">
<path fill-rule="evenodd" clip-rule="evenodd" d="M6.98555 21C6.01575 21.9726 2 22 2 22C2 22 2.03403 17.9659 2.99711 17L14.9624 5L18.9509 9L6.98555 21ZM6.04624 19C5.07644 19.9726 4.05202 20 4.05202 20C4.05202 20 4.08605 18.9659 5.04913 18L14.9624 8L16.0173 9L6.04624 19ZM22 5.49835C22 5.17954 21.872 4.87408 21.6448 4.65049L19.3038 2.34728C19.0776 2.12473 18.773 2 18.4557 2C18.1344 2 17.8262 2.12789 17.5994 2.35544L15.9595 4L19.948 8L21.6408 6.35014C21.8705 6.12626 22 5.8191 22 5.49835Z" fill="#4E6474"/>
</svg>
