<svg width="24" height="24" viewBox="0 0 24 24" fill="none" xmlns="http://www.w3.org/2000/svg">
    <path fill-rule="evenodd" clip-rule="evenodd" d="M14 9V6C14 5.44772 14.4477 5 15 5C15.5523 5 16 5.44772 16 6V8H18C18.5523 8 19 8.44772 19 9C19 9.55228 18.5523 10 18 10H15C14.4477 10 14 9.55228 14 9ZM5 15C5 14.4477 5.44772 14 6 14H9C9.55228 14 10 14.4477 10 15V18C10 18.5523 9.55228 19 9 19C8.44772 19 8 18.5523 8 18V16H6C5.44772 16 5 15.5523 5 15ZM19 15C19 14.4477 18.5523 14 18 14H15C14.4477 14 14 14.4477 14 15V18C14 18.5523 14.4477 19 15 19C15.5523 19 16 18.5523 16 18V16H18C18.5523 16 19 15.5523 19 15ZM9 10C9.55228 10 10 9.55228 10 9V6C10 5.44772 9.55228 5 9 5C8.44772 5 8 5.44772 8 6V8H6C5.44772 8 5 8.44772 5 9C5 9.55228 5.44772 10 6 10H9Z" fill="#ffffff"/>
</svg>
