<svg viewBox="0 0 24 24" fill="none" xmlns="http://www.w3.org/2000/svg">
    <path fill-rule="evenodd" clip-rule="evenodd" d="M2 12C3.57273 7.90267 7.45455 5 12 5C16.5455 5 20.4273 7.90267 22 12C20.4273 16.0973 16.5455 19 12 19C7.45455 19 3.57273 16.0973 2 12ZM4 12C5.25818 9.07333 8.36364 7 12 7C15.6364 7 18.7418 9.07333 20 12C18.7418 14.9267 15.6364 17 12 17C8.36364 17 5.25818 14.9267 4 12ZM12 10C13.104 10 14 10.896 14 12C14 13.104 13.104 14 12 14C10.896 14 10 13.104 10 12C10 10.896 10.896 10 12 10ZM8 12C8 9.79556 9.79556 8 12 8C14.2044 8 16 9.79556 16 12C16 14.2044 14.2044 16 12 16C9.79556 16 8 14.2044 8 12Z" fill="#ffffff"/>
</svg>
