<svg width="121" height="21" viewBox="0 0 121 21" fill="none" xmlns="http://www.w3.org/2000/svg">
<path d="M4.66116 1.97927L9.10829 14.5359L13.5316 1.97927H18.2166V19.2922H14.6375V14.5597L14.9942 6.39073L10.3211 19.2922H7.87166L3.2105 6.40262L3.56722 14.5597V19.2922H0V1.97927H4.66116Z" fill="#EAEEF8"/>
<path d="M31.3202 15.7249H25.0656L23.8766 19.2922H20.0834L26.5282 1.97927H29.8338L36.3143 19.2922H32.5211L31.3202 15.7249ZM26.0288 12.8355H30.357L28.181 6.35506L26.0288 12.8355Z" fill="#EAEEF8"/>
<path d="M41.4986 13.1922V19.2922H37.9314V1.97927H44.6853C45.9854 1.97927 47.1269 2.21708 48.1099 2.69271C49.1008 3.16834 49.8618 3.84611 50.3929 4.72603C50.924 5.59801 51.1896 6.59287 51.1896 7.7106C51.1896 9.40701 50.6069 10.7467 49.4416 11.7297C48.2843 12.7047 46.679 13.1922 44.6259 13.1922H41.4986ZM41.4986 10.3028H44.6853C45.6287 10.3028 46.3461 10.0808 46.8376 9.6369C47.337 9.19298 47.5867 8.5588 47.5867 7.73438C47.5867 6.88617 47.337 6.20048 46.8376 5.67728C46.3382 5.15409 45.6485 4.88457 44.7686 4.86872H41.4986V10.3028Z" fill="#EAEEF8"/>
<path d="M67.242 13.5252C67.1073 15.388 66.4176 16.8546 65.173 17.9247C63.9364 18.9949 62.3034 19.53 60.2741 19.53C58.0545 19.53 56.3065 18.7848 55.0303 17.2945C53.7619 15.7963 53.1278 13.7432 53.1278 11.1351V10.0769C53.1278 8.41215 53.4211 6.94563 54.0077 5.67728C54.5943 4.40894 55.4306 3.43787 56.5166 2.76406C57.6105 2.08232 58.8789 1.74146 60.3216 1.74146C62.3193 1.74146 63.9285 2.27654 65.1493 3.3467C66.37 4.41687 67.0756 5.91906 67.2658 7.85329H63.6986C63.6114 6.73556 63.2983 5.92699 62.7592 5.42758C62.2281 4.92024 61.4156 4.66657 60.3216 4.66657C59.1326 4.66657 58.2408 5.09464 57.6462 5.95077C57.0596 6.79898 56.7584 8.11885 56.7425 9.91038V11.2184C56.7425 13.0892 57.0239 14.4566 57.5868 15.3207C58.1575 16.1847 59.0533 16.6168 60.2741 16.6168C61.3759 16.6168 62.1964 16.367 62.7355 15.8676C63.2824 15.3603 63.5955 14.5795 63.6748 13.5252H67.242Z" fill="#EAEEF8"/>
<path d="M100.251 12.9544H97.4088V19.2922H93.8416V1.97927H100.274C102.32 1.97927 103.897 2.43508 105.007 3.3467C106.117 4.25833 106.672 5.54649 106.672 7.21119C106.672 8.39233 106.414 9.37926 105.899 10.172C105.391 10.9568 104.619 11.583 103.58 12.0507L107.326 19.1257V19.2922H103.497L100.251 12.9544ZM97.4088 10.065H100.286C101.182 10.065 101.876 9.83904 102.367 9.38719C102.859 8.92742 103.104 8.29721 103.104 7.49657C103.104 6.68007 102.871 6.03797 102.403 5.57027C101.943 5.10257 101.234 4.86872 100.274 4.86872H97.4088V10.065Z" fill="#EAEEF8"/>
<path d="M119.811 11.7891H112.962V16.4265H121V19.2922H109.395V1.97927H120.976V4.86872H112.962V8.9948H119.811V11.7891Z" fill="#EAEEF8"/>
<path d="M75.3654 5.39033C75.5921 4.24149 75.8986 3.17825 76.2793 2.24457C76.472 1.77078 76.6812 1.33985 76.9051 0.949829C74.1349 1.9577 71.9332 4.15904 70.9253 6.92982C71.315 6.70549 71.7465 6.49728 72.2201 6.30439C73.1539 5.92332 74.2164 5.61724 75.3654 5.39033Z" fill="#F6EA74"/>
<path d="M81.5796 1.16775C81.1487 0.633321 80.7076 0.351562 80.309 0.351562C79.5521 0.351562 78.6407 1.37022 77.9369 3.20753C78.8302 2.56295 79.7767 1.99059 80.7744 1.5214C81.0356 1.39885 81.3051 1.28037 81.5796 1.16775Z" fill="#F6EA74"/>
<path d="M85.253 15.2777C85.0261 16.427 84.7199 17.4891 84.339 18.4228C84.146 18.8965 83.937 19.3286 83.7134 19.7174C86.4834 18.7095 88.6849 16.508 89.693 13.7379C89.3035 13.9616 88.8718 14.1714 88.3983 14.364C87.4645 14.7445 86.4019 15.0515 85.253 15.2777Z" fill="#F6EA74"/>
<path d="M71.3355 11.1582C71.8296 10.0346 72.4525 8.96657 73.1724 7.9657C71.3423 8.66892 70.3283 9.57771 70.327 10.3331C70.327 10.3335 70.327 10.3339 70.327 10.3343C70.327 10.3347 70.327 10.3351 70.327 10.3355C70.3277 10.7344 70.6103 11.1759 71.1462 11.6064C71.2076 11.4553 71.2708 11.3059 71.3355 11.1582Z" fill="#F6EA74"/>
<path d="M90.8703 4.32674C90.5482 2.69431 89.34 1.51426 87.7349 1.11368C85.6216 0.586539 83.3194 1.24931 81.4035 2.15058C79.858 2.87882 78.4327 3.84969 77.1416 4.96439C74.9765 6.8352 73.1209 9.16042 71.9646 11.7872C71.1159 13.7151 70.5076 16.0648 71.1963 18.1349C71.4703 18.9566 71.9659 19.6907 72.6705 20.2002C73.5366 20.8258 74.6187 21.0429 75.672 20.9931C77.0024 20.9303 78.2852 20.5282 79.4933 19.9661C79.7738 20.1965 80.0509 20.3156 80.3091 20.3156C81.2944 20.3156 82.5412 18.5945 83.2511 15.5814C82.3013 15.6844 81.3147 15.7395 80.3091 15.7395C79.3034 15.7395 78.3171 15.6844 77.3673 15.5814C77.8434 17.6023 78.5615 19.0419 79.2797 19.7706C78.5792 20.0241 77.8558 20.2146 77.1099 20.3272C75.3647 20.5884 73.2148 20.244 72.464 18.4225C72.1726 17.717 72.1312 16.9365 72.2203 16.1758C73.3487 17.7331 74.9158 18.9539 76.7387 19.6542C76.7783 19.6473 76.8176 19.6402 76.8566 19.6329C76.6513 19.2656 76.458 18.8621 76.2793 18.4227C75.8986 17.489 75.592 16.4269 75.3654 15.2776C74.3692 15.0816 73.4385 14.8251 72.6002 14.5123C72.7947 13.9102 73.0407 13.3251 73.3227 12.7579C73.8413 12.9495 74.4221 13.1255 75.0618 13.2755C74.9589 12.3256 74.9038 11.34 74.9038 10.3343C74.9038 10.2782 74.9047 10.2228 74.905 10.1679C75.5216 9.31785 76.2019 8.516 76.9305 7.75925C76.8502 8.56236 76.8052 9.42227 76.8052 10.3343C76.8052 11.5248 76.8812 12.6263 77.0135 13.6298C78.0169 13.7622 79.1185 13.8373 80.309 13.8373C81.4996 13.8373 82.6011 13.7621 83.6048 13.6298C83.7368 12.6263 83.8129 11.5248 83.8129 10.3343C83.8129 9.14361 83.7368 8.04222 83.6048 7.03848C82.6011 6.90629 81.4996 6.82952 80.309 6.82952C79.3988 6.82952 78.5416 6.87514 77.7387 6.95431C78.1558 6.55821 78.584 6.17283 79.0227 5.80215C79.3802 5.49945 79.7508 5.20874 80.1329 4.93031C80.1915 4.92996 80.2499 4.9291 80.309 4.9291C81.3147 4.9291 82.3012 4.98378 83.251 5.08705C83.1009 4.44923 82.9257 3.86959 82.7347 3.35261C82.9622 3.24027 83.1916 3.13459 83.4225 3.0351C83.7703 2.88502 84.1266 2.74744 84.489 2.63039C84.801 3.46672 85.0567 4.39645 85.253 5.39032C86.4019 5.61723 87.4645 5.92332 88.3983 6.30439C88.8367 6.48207 89.2386 6.67479 89.6054 6.88041C89.6127 6.83985 89.6199 6.7978 89.6275 6.75712C88.9286 4.94339 87.7161 3.38474 86.168 2.25839C86.3161 2.24146 86.4653 2.23045 86.6145 2.22471C87.5831 2.18598 88.4654 2.41198 89.2297 3.01623C89.2278 3.01273 89.2247 3.00963 89.2212 3.00699C89.3895 3.18835 89.5593 3.35427 89.7031 3.55726C90.0253 4.01561 90.2037 4.55434 90.2985 5.10134C90.4842 6.17519 90.3272 7.29505 90.0414 8.33648C89.9531 8.66053 89.8487 8.97883 89.7338 9.29324C89.0007 8.57831 87.5665 7.86528 85.5563 7.39189C85.6595 8.34165 85.7144 9.32881 85.7144 10.3344C85.7144 11.3401 85.6595 12.3257 85.5563 13.2757C88.5682 12.5669 90.2896 11.3201 90.2913 10.3356C90.2913 10.3352 90.2913 10.3348 90.2913 10.3345C90.2913 10.3341 90.2913 10.3336 90.2913 10.3333C90.2908 10.0743 90.1707 9.79743 89.9402 9.51688C90.6831 7.91319 91.2163 6.07691 90.8703 4.32674Z" fill="#F6EA74"/>
</svg>
