<svg viewBox="0 0 24 24" fill="#ffffff" xmlns="http://www.w3.org/2000/svg">
    <path fill-rule="evenodd" clip-rule="evenodd" d="M15.1716 3C15.702 3 16.2107 3.21071 16.5858 3.58579L20.4142 7.41421C20.7893 7.78929 21 8.29799 21 8.82843V19C21 20.1046 20.1046 21 19 21H5C3.89543 21 3 20.1046 3 19V5C3 3.89543 3.89543 3 5 3H15.1716ZM14.7929 5C14.9255 5 15.0527 5.05268 15.1464 5.14645L18.8536 8.85355C18.9473 8.94732 19 9.0745 19 9.20711V18.5C19 18.7761 18.7761 19 18.5 19H5.5C5.22386 19 5 18.7761 5 18.5V5.5C5 5.22386 5.22386 5 5.5 5H14.7929ZM15 15C15 16.6569 13.6569 18 12 18C10.3431 18 9 16.6569 9 15C9 13.3431 10.3431 12 12 12C13.6569 12 15 13.3431 15 15ZM15 6H7V10H15V6Z" fill="#4E6474"/>
</svg>
