<svg aria-hidden="true" focusable="false" data-prefix="fad" data-icon="signal-4" role="img" xmlns="http://www.w3.org/2000/svg" viewBox="0 0 640 512" class="svg-inline--fa fa-signal-4 fa-w-20 fa-9x"><g class="fa-group"><path fill="#eaeef840" d="M616 16v480a16 16 0 0 1-16 16h-48a16 16 0 0 1-16-16V16a16 16 0 0 1 16-16h48a16 16 0 0 1 16 16z" class="fa-secondary"></path><path fill="#eaeef8" d="M216 288h-48a16 16 0 0 0-16 16v192a16 16 0 0 0 16 16h48a16 16 0 0 0 16-16V304a16 16 0 0 0-16-16zM88 384H40a16 16 0 0 0-16 16v96a16 16 0 0 0 16 16h48a16 16 0 0 0 16-16v-96a16 16 0 0 0-16-16zm256-192h-48a16 16 0 0 0-16 16v288a16 16 0 0 0 16 16h48a16 16 0 0 0 16-16V208a16 16 0 0 0-16-16zm128-96h-48a16 16 0 0 0-16 16v384a16 16 0 0 0 16 16h48a16 16 0 0 0 16-16V112a16 16 0 0 0-16-16z" class="fa-primary"></path></g></svg>