<svg width="49" height="49" viewBox="0 0 49 49" fill="none" xmlns="http://www.w3.org/2000/svg">
<path d="M42.875 48.8852L28.6541 40.0039H3.0625C1.37125 40.0039 0 38.6327 0 36.9414V3.25391C0 1.56265 1.37125 0.191406 3.0625 0.191406H45.9375C47.6288 0.191406 49 1.56265 49 3.25391V36.9414C49 38.6327 47.6288 40.0039 45.9375 40.0039H42.875V48.8852Z" fill="#00FF24"/>
<path d="M33.2029 15.8943L22.5066 26.5066C21.8775 27.1358 20.8708 27.1777 20.1996 26.5486L14.5369 21.3892C13.8658 20.76 13.8238 19.7114 14.4111 19.0402C15.0403 18.3691 16.0889 18.3271 16.76 18.9563L21.2483 23.067L30.812 13.5034C31.4831 12.8322 32.5317 12.8322 33.2029 13.5034C33.874 14.1745 33.874 15.2231 33.2029 15.8943Z" fill="#404040"/>
</svg>
