<svg xmlns="http://www.w3.org/2000/svg" xmlns:xlink="http://www.w3.org/1999/xlink" width="28px" height="28px" viewBox="0 0 28 28" version="1.1">
    <title>Icons/Center</title>
    <g id="Symbols" stroke="none" stroke-width="1" fill="none" fill-rule="evenodd">
        <g id="Group-11" fill="#2196F3">
            <path d="M18.7988003,18.7954689 L27.1538226,20.9944809 L20.998202,27.1490107 L18.7988003,18.7954689 Z M8.35502234,18.7954689 L6.15562062,27.1490107 L-2.15205631e-12,20.9929155 L8.35502234,18.7954689 Z M6.15652202,-1.26121336e-13 L8.35502234,8.35354174 L-2.15205631e-12,6.15543102 L6.15652202,-1.26121336e-13 Z M20.998202,-1.26121336e-13 L27.1538226,6.15519384 L18.7988003,8.35354174 L20.998202,-1.26121336e-13 Z" id="Combined-Shape"/>
            <path d="M11.4059273,13.5740251 C11.4059273,14.7708598 12.3799883,15.744849 13.5769113,15.744849 C14.7738343,15.744849 15.7478953,14.7708598 15.7478953,13.5740251 C15.7478953,12.3781508 14.7738343,11.4041617 13.5769113,11.4041617 C12.3799883,11.4041617 11.4059273,12.3781508 11.4059273,13.5740251 Z M8.93523223,13.5740251 C8.93523223,11.0151424 11.0178399,8.93364881 13.5769113,8.93364881 C16.1359827,8.93364881 18.2185904,11.0151424 18.2185904,13.5740251 C18.2185904,16.1329078 16.1359827,18.2153619 13.5769113,18.2153619 C11.0178399,18.2153619 8.93523223,16.1329078 8.93523223,13.5740251 Z" id="Fill-3"/>
        </g>
    </g>
</svg>