<svg width="20" height="18" viewBox="0 0 20 18" fill="none" xmlns="http://www.w3.org/2000/svg">
    <path fill-rule="evenodd" clip-rule="evenodd" d="M10.848 1.35681C10.4563 0.730144 9.54367 0.730143 9.152 1.35681L0.132939 15.7873C0.0460639 15.9263 0 16.0869 0 16.2508C0 17.2169 0.783131 18 1.74917 18H18.2508C19.2169 18 20 17.2169 20 16.2508C20 16.0869 19.9539 15.9263 19.8671 15.7873L10.848 1.35681ZM10 6.00001C10.5523 6.00001 11 6.44773 11 7.00001V11C11 11.5523 10.5523 12 10 12C9.44771 12 9 11.5523 9 11V7.00001C9 6.44773 9.44771 6.00001 10 6.00001ZM10 13C10.5523 13 11 13.4477 11 14C11 14.5523 10.5523 15 10 15C9.44771 15 9 14.5523 9 14C9 13.4477 9.44771 13 10 13Z" fill="#FFFF00"/>
</svg>
