<svg width="24" height="24" viewBox="0 0 24 24" fill="none" xmlns="http://www.w3.org/2000/svg">
    <path fill-rule="evenodd" clip-rule="evenodd" d="M22 9C19.6427 6.05382 16.0388 4 12 4C7.96117 4 4.35728 6.0538 2 8.99996L3.5 10.5C5.49112 7.9193 8.51296 6.00103 12 6.00103C15.487 6.00103 18.5089 7.91927 20.5 10.5L22 9ZM19.5 11.5C17.8785 9.28316 15 8.00206 11.9997 8.00206C9.0644 8.00206 6.12154 9.28336 4.5 11.5L6 13C7.24538 11.1446 9.5 10.0031 11.9997 10.0031C14.384 10.0031 16.7547 11.1444 18 13L19.5 11.5ZM12 12.0041C14 12.0041 16.1462 12.9998 17 14.5L15.5 16C15.0909 14.8374 13 14.0103 12 14.0051C11 14 8.9091 14.8375 8.5 16L7 14.5C7.85385 12.9999 9.99996 12.0041 12 12.0041ZM12 20C13.1045 20 14 19.1046 14 18C14 16.8954 13.1045 16 12 16C10.8954 16 9.99997 16.8954 9.99997 18C9.99997 19.1046 10.8954 20 12 20Z" fill="#00ff24"/>
</svg>
